<svg width="396" height="429" viewBox="0 0 396 429" fill="none" xmlns="http://www.w3.org/2000/svg">
<path d="M392.385 158.859C389.502 157.746 386.271 159.239 385.19 162.171C383.606 166.426 381.842 169.908 380.002 172.684C378.393 175.119 376.732 177.018 375.059 178.498C375.059 178.34 375.084 178.17 375.084 178.013C375.084 173.771 374.517 170.014 373.45 166.702C371.866 161.726 369.06 157.786 365.559 155.22C362.057 152.628 357.989 151.476 354.089 151.476C349.815 151.476 345.67 152.837 342.246 155.377C340.547 156.686 339.028 158.27 337.818 160.143C336.621 162.028 335.745 164.201 335.321 166.532C335.128 167.632 335.037 168.731 335.037 169.804C335.037 173.261 335.977 176.56 337.509 179.505C339.801 183.944 343.405 187.675 347.807 190.385C350.369 191.969 353.227 193.199 356.277 193.946C356.097 194.103 355.93 194.273 355.737 194.443C351.128 198.319 344.756 201.565 338.024 203.791C322.371 181.796 299.367 165.431 272.707 155.992V189.049H157.92V157.668C148.768 161.033 139.692 165.143 130.823 170.157C122.159 175.066 114.396 180.16 107.329 185.253C88.2133 161.87 40.1206 157.968 46.3119 176.154C51.9372 192.637 60.1889 210.704 64.0248 221.413C49.5818 233.798 36.2064 243.408 18.6483 246.734C2.60862 249.771 -2.15411 254.091 0.845564 270.038L7.48834 323.388C7.48834 323.388 26.1924 334.372 32.822 338.117C47.4455 346.325 76.2163 364.249 118.748 377.576L134.865 429H175.209V390.248C191.313 392.526 208.652 393.861 227.24 393.861C236.895 393.861 245.958 393.207 254.492 391.963V429H294.822L313.565 369.248C358.17 337.198 369.176 279.829 353.419 233.745C350.986 226.649 347.909 219.945 344.293 213.583C350.304 211.33 356.071 208.398 361.028 204.627C364.735 201.825 367.992 198.539 370.463 194.691C370.721 194.311 370.953 193.944 371.184 193.552C371.571 193.421 371.969 193.316 372.356 193.172C377.015 191.51 381.521 188.446 385.473 183.969C389.438 179.505 392.888 173.626 395.643 166.177C396.724 163.245 395.269 159.958 392.385 158.859ZM68.2998 275.038C62.3524 275.038 57.5378 270.141 57.5378 264.092C57.5378 258.057 62.3524 253.147 68.2998 253.147C74.2473 253.147 79.0619 258.056 79.0619 264.092C79.0611 270.141 74.2473 275.038 68.2998 275.038ZM363.821 180.801C363.743 181.718 363.601 182.581 363.383 183.445C363.28 183.445 363.164 183.445 363.061 183.445C360.821 183.445 358.607 183 356.547 182.162C353.458 180.932 350.742 178.863 348.901 176.559C348 175.407 347.292 174.202 346.867 173.05C346.417 171.897 346.197 170.797 346.197 169.803C346.197 169.384 346.236 168.978 346.3 168.585C346.468 167.734 346.751 167.028 347.188 166.32C347.82 165.325 348.797 164.461 350.021 163.807C351.231 163.178 352.673 162.811 354.089 162.811C355.261 162.811 356.393 163.047 357.462 163.519C358.26 163.872 359.007 164.356 359.728 165.011C360.796 166.006 361.8 167.42 362.586 169.514C363.371 171.596 363.911 174.385 363.911 178.012C363.911 178.876 363.872 179.832 363.821 180.801Z" fill="#35BB8A" fill-opacity="0.98"/>
<path d="M192.368 60.1052C192.368 61.2967 192.291 62.0299 193.514 62.2787C193.617 62.3047 193.772 62.3315 193.978 62.3441C194.171 62.3835 196.578 62.4748 197.119 62.5536C197.943 62.6717 198.535 63.1032 198.535 64.2293V94.3674C198.535 95.2967 198.085 96.2267 197.119 96.2267C196.579 96.2267 194.171 96.3842 193.978 96.4102C193.772 96.4496 193.617 96.4756 193.514 96.489C192.291 96.7512 192.368 97.4844 192.368 98.6884V104.868H203.31V111.65H209.321V104.868H214.754V111.65H220.766V104.816C222.993 104.698 225.374 104.371 227.267 103.769C229.674 103.009 231.077 102.001 232.712 100.678C234.373 99.3688 235.621 97.7978 236.483 95.9913C237.346 94.1848 237.758 92.2208 237.758 90.0732C237.758 84.1686 234.475 80.1233 227.421 78.8665C229.725 77.9498 232.313 75.3054 233.085 74.3888C233.858 73.4202 234.437 72.4122 234.81 71.3514C235.171 70.2647 235.35 69.126 235.35 67.9471C235.35 65.8783 234.99 64.019 234.243 62.3826C233.509 60.7203 232.3 59.3972 230.767 58.1538C228.012 55.9803 224.022 54.9589 220.765 54.6715V47.6014H214.753V54.5794L209.321 54.566V47.6006H203.309V54.5525H192.367L192.368 60.1052ZM223.636 89.9425C223.636 90.741 223.507 91.5136 223.263 92.2208C223.005 92.9539 222.593 93.5564 222.014 94.0926C221.435 94.6423 220.675 95.0612 219.709 95.3888C218.769 95.7164 217.572 95.8605 216.169 95.8605H209.862V84.5231H216.131C217.483 84.5231 218.628 84.6412 219.568 84.8901C220.508 85.1389 221.28 85.4925 221.885 85.9634C222.49 86.4477 222.928 87.0242 223.224 87.6786C223.507 88.3455 223.636 89.1172 223.636 89.9425ZM209.643 63.4702H214.522C217.083 63.4702 218.963 63.8892 220.172 64.753C221.383 65.6043 221.987 67.0438 221.987 69.0472C221.987 70.9978 221.318 72.4248 219.979 73.328C218.64 74.2053 216.67 74.6636 214.096 74.6636H209.642L209.643 63.4702Z" fill="#35BB8A" fill-opacity="0.98"/>
<path d="M215.075 159.239C258.302 159.239 293.355 123.602 293.355 79.6256C293.355 35.6631 258.302 0 215.075 0C171.836 0 136.783 35.6631 136.783 79.6256C136.783 123.602 171.836 159.239 215.075 159.239ZM215.075 12.4636C251.492 12.4636 281.112 42.5883 281.112 79.6256C281.112 116.65 251.492 146.801 215.075 146.801C178.645 146.801 149.025 116.65 149.025 79.6256C149.025 42.5883 178.645 12.4636 215.075 12.4636Z" fill="#35BB8A" fill-opacity="0.98"/>
<path d="M208.047 26.5243L208.369 26.4983C210.57 26.2101 212.823 26.0794 215.076 26.0794C215.681 26.0794 216.286 26.0794 216.904 26.1053H216.982C218.295 26.1053 219.376 25.0446 219.415 23.7098C219.479 22.3348 218.41 21.1827 217.059 21.1567L216.828 21.1308H216.647C216.286 21.1308 215.926 21.1048 215.553 21.1048H213.957L213.932 21.1308H213.194L213.181 21.1567H212.389L212.364 21.1827H211.872L211.847 21.1961H211.588L211.524 21.2095H211.383L211.293 21.2355L211.267 21.2489H211.036C209.916 21.3143 208.821 21.4324 207.727 21.5765C206.389 21.7466 205.436 23.0035 205.616 24.3525C205.781 25.6085 206.837 26.5243 208.047 26.5243Z" fill="#35BB8A" fill-opacity="0.98"/>
<path d="M185.159 35.0607C185.623 35.0607 186.073 34.9166 186.485 34.6551C188.364 33.4117 190.334 32.2856 192.342 31.317C193.552 30.7279 194.067 29.2482 193.488 27.9914C193.063 27.1007 192.188 26.577 191.286 26.577C190.913 26.577 190.565 26.6558 190.218 26.8125C189.394 27.2314 188.583 27.6638 187.772 28.1087L187.617 28.1875L187.591 28.2009L187.539 28.2268H187.514L187.475 28.2528H187.462L187.449 28.2788H187.436L187.41 28.3048L187.385 28.3182L187.371 28.3316H187.358L187.345 28.345H187.332L187.319 28.3584H187.305L187.28 28.3718H187.267L187.254 28.3852H187.24L187.227 28.4112H187.201L187.188 28.4246V28.438H187.162L187.149 28.4514H187.136L187.123 28.4648H187.083L187.077 28.4883H187.038V28.5142H187.025L186.986 28.5402H186.973L186.947 28.5662L186.908 28.5922H186.87L186.818 28.645H186.805L186.727 28.6843C185.736 29.2608 184.784 29.8498 183.818 30.4783C182.685 31.2248 182.363 32.7565 183.097 33.9212C183.576 34.6543 184.348 35.0607 185.159 35.0607Z" fill="#35BB8A" fill-opacity="0.98"/>
<path d="M197.697 130.187C195.598 129.454 193.513 128.563 191.518 127.543C191.17 127.359 190.784 127.281 190.424 127.281C189.536 127.281 188.66 127.778 188.236 128.668C187.631 129.873 188.119 131.378 189.33 131.994C190.076 132.361 190.836 132.727 191.595 133.094L191.673 133.12H191.686L191.75 133.159H191.777L191.815 133.173L191.828 133.199H191.868L191.894 133.225H191.92L191.933 133.251H191.998L192.011 133.264H192.025L192.076 133.291V133.304H192.102L192.115 133.33H192.18L192.207 133.357H192.22L192.245 133.37L192.258 133.384H192.285L192.298 133.397L192.324 133.411H192.35V133.437H192.375L192.414 133.45H192.44V133.463H192.465L192.504 133.489H192.53L192.595 133.515H192.608L192.621 133.541H192.647L192.672 133.567H192.698L192.723 133.581L192.775 133.594L192.801 133.608L192.852 133.634L192.878 133.647L192.93 133.673L192.943 133.686H192.969L193.021 133.712H193.035L193.124 133.752H193.138L193.202 133.778L193.227 133.804L193.292 133.817L193.305 133.83L193.369 133.844L193.382 133.857L193.421 133.871L193.473 133.91H193.486L193.55 133.923L193.563 133.937H193.577L193.629 133.963L193.654 133.976L193.718 134.002H193.732L193.783 134.028L193.797 134.042H193.849L193.9 134.068L193.914 134.081H193.939L193.978 134.094L193.991 134.108H194.004L194.031 134.135H194.056L194.069 134.148H194.108L194.121 134.161H194.147V134.175H194.199L194.212 134.201H194.238L194.251 134.214H194.29L194.316 134.24H194.329V134.254H194.368L194.393 134.28H194.459L194.498 134.319H194.537L194.55 134.332H194.564L194.589 134.346H194.602L194.616 134.359H194.641L194.667 134.373L194.705 134.386L194.719 134.399L194.757 134.413H194.796L194.86 134.452H194.886C195.285 134.61 195.696 134.753 196.108 134.91C196.366 134.989 196.649 135.041 196.907 135.041C197.923 135.041 198.863 134.413 199.224 133.365C199.641 132.073 198.971 130.646 197.697 130.187Z" fill="#35BB8A" fill-opacity="0.98"/>
<path d="M171.566 111.544C171.051 111.544 170.51 111.702 170.06 112.068C168.991 112.892 168.811 114.451 169.634 115.55C170.072 116.139 170.536 116.702 170.999 117.265L171.038 117.318L171.051 117.331L171.089 117.384H171.103V117.41H171.116V117.424L171.141 117.437L171.155 117.45V117.464H171.168L171.181 117.49V117.503H171.206L171.22 117.517V117.543L171.271 117.595V117.609H171.285L171.298 117.635H171.311L171.337 117.661V117.674L171.388 117.727V117.74L171.402 117.754L171.44 117.78L171.454 117.806C172.432 118.958 173.449 120.058 174.504 121.131C174.981 121.629 175.598 121.864 176.216 121.864C176.86 121.864 177.491 121.629 177.954 121.131C178.906 120.149 178.906 118.592 177.941 117.61C176.37 116.013 174.864 114.298 173.499 112.504C173.02 111.858 172.286 111.544 171.566 111.544Z" fill="#35BB8A" fill-opacity="0.98"/>
<path d="M160.263 76.274C161.499 76.274 162.567 75.3314 162.696 74.0486C162.927 71.7963 163.301 69.519 163.816 67.3195C164.125 65.9839 163.301 64.6357 161.987 64.3341L161.434 64.2687C160.314 64.2687 159.322 65.0413 159.052 66.18C158.498 68.5755 158.086 71.0372 157.816 73.5249C157.688 74.8865 158.666 76.1299 160.018 76.274H160.263Z" fill="#35BB8A" fill-opacity="0.98"/>
<path d="M174.063 46.032C174.912 44.9847 174.745 43.4002 173.69 42.5364C173.239 42.1568 172.698 41.9993 172.158 41.9993C171.45 41.9993 170.742 42.3001 170.266 42.9159C169.854 43.4136 169.467 43.9239 169.094 44.4476L169.042 44.5004V44.5138H169.029L168.977 44.5666V44.5925L168.925 44.6453L168.873 44.7241L168.821 44.7894L168.718 44.9202C168.075 45.8368 167.457 46.7401 166.852 47.6567L166.813 47.7355L166.8 47.7489L166.774 47.7883V47.8142H166.749V47.8402L166.723 47.8662V47.8796H166.71L166.697 47.893V47.919L166.671 47.9449V47.9583L166.645 47.9852V47.9986L166.618 48.0505L166.605 48.0639H166.592L166.579 48.1033H166.566V48.1167L166.552 48.1561L166.545 48.1787L166.52 48.1921V48.2055L166.468 48.2583C166.326 48.5206 166.172 48.7686 166.017 49.0174C165.309 50.1955 165.669 51.7146 166.815 52.4218C167.227 52.684 167.665 52.7888 168.103 52.7888C168.927 52.7888 169.725 52.3832 170.188 51.6233C171.346 49.6844 172.66 47.8126 174.063 46.032Z" fill="#35BB8A" fill-opacity="0.98"/>
<path d="M163.61 91.0418C163.365 89.8638 162.348 89.0778 161.215 89.0778L160.701 89.1306C159.387 89.4314 158.551 90.741 158.821 92.0892C159.349 94.5509 160.018 96.9464 160.842 99.2766C161.203 100.298 162.142 100.913 163.147 100.913C163.417 100.913 163.7 100.874 163.97 100.769C165.245 100.297 165.888 98.8971 165.451 97.5874C164.704 95.4676 164.086 93.2413 163.61 91.0418Z" fill="#35BB8A" fill-opacity="0.98"/>
<path d="M236.972 128.341C235.749 128.918 235.208 130.397 235.762 131.654C236.173 132.544 237.075 133.094 237.988 133.094C238.336 133.094 238.684 133.015 239.018 132.884C240.357 132.23 241.683 131.549 242.983 130.829L243.009 130.816L243.061 130.79L243.074 130.764L243.126 130.738L243.165 130.724L243.203 130.685H243.229L243.242 130.672L243.255 130.658L243.281 130.645H243.294L243.307 130.631H243.334L243.359 130.605H243.398L243.411 130.579L243.45 130.553H243.463V130.54H243.489L243.528 130.514L243.541 130.501L243.567 130.487H243.58L243.632 130.434C244.263 130.081 244.868 129.715 245.472 129.334C246.618 128.601 246.978 127.069 246.271 125.904C245.781 125.157 244.996 124.712 244.172 124.712C243.735 124.712 243.297 124.843 242.885 125.105C240.988 126.312 238.993 127.412 236.972 128.341Z" fill="#35BB8A" fill-opacity="0.98"/>
<path d="M259.461 108.428C258.25 110.339 256.925 112.199 255.495 113.953C254.62 115 254.775 116.572 255.804 117.435C256.268 117.841 256.821 118.024 257.375 118.024C258.07 118.024 258.765 117.724 259.254 117.121C260.515 115.576 261.7 113.979 262.807 112.303H262.82V112.277H262.834L262.859 112.251V112.225L262.911 112.173V112.159L262.924 112.133L262.963 112.094V112.067H262.976V112.041H262.989L263.002 112.015H263.016L263.029 111.976L263.068 111.935H263.082V111.91L263.107 111.857H263.12L263.133 111.843V111.83L263.159 111.791L263.172 111.777L263.185 111.751L263.224 111.698L263.585 111.096C264.319 109.97 263.984 108.425 262.851 107.679C262.439 107.404 261.975 107.286 261.525 107.286C260.722 107.289 259.937 107.695 259.461 108.428Z" fill="#35BB8A" fill-opacity="0.98"/>
<path d="M266.708 69.126C266.94 70.3174 267.957 71.1419 269.102 71.1419L269.578 71.0891C270.917 70.8009 271.767 69.5181 271.51 68.1699L271.458 67.8691V67.8557L271.445 67.8423V67.8163L271.42 67.777V67.6856H271.407V67.58H271.393V67.5273L271.368 67.5139V67.4502H271.355V67.3706L271.342 67.3446V67.3312L271.328 67.2918V67.2407L271.303 67.2147V67.1234L271.29 67.11V67.0572L271.276 67.0438V66.9784L271.263 66.9525L271.238 66.8737V66.8218L271.225 66.7958V66.7698H271.211L271.186 66.6651L271.173 66.5603C270.889 65.2901 270.555 64.0207 270.194 62.7639L270.155 62.6725L270.103 62.5024V62.489L270.078 62.3843L270.052 62.3055L270.039 62.2796L270.013 62.2008L269.988 62.1095V62.0835H269.975L269.962 62.0307L269.952 62.0039L269.938 61.9385L269.925 61.9126V61.8598L269.9 61.8338V61.7944L269.887 61.781L269.873 61.755V61.7157L269.86 61.7022V61.6495L269.847 61.6361V61.6101H269.834L269.807 61.5581V61.5045H269.794V61.4651H269.781V61.4383L269.768 61.4249V61.4115L269.755 61.3981V61.3755L269.742 61.3495V61.2841L269.728 61.2707H269.715V61.2448L269.702 61.2188V61.2054L269.689 61.1794V61.166L269.676 61.14L269.65 61.0613H269.637V61.0353L269.624 60.9825V60.9565C269.276 59.9092 268.311 59.2548 267.306 59.2548C267.048 59.2548 266.766 59.2942 266.521 59.3989C265.233 59.8312 264.551 61.2448 264.963 62.541C265.704 64.6877 266.271 66.9131 266.708 69.126Z" fill="#35BB8A" fill-opacity="0.98"/>
<path d="M221.138 132.858H220.868C218.95 133.068 217.006 133.173 215.075 133.173C214.766 133.173 214.457 133.173 214.148 133.173H214.11C212.784 133.173 211.689 134.273 211.677 135.621C211.638 136.996 212.72 138.121 214.071 138.148C214.316 138.148 214.586 138.148 214.831 138.148H216.635L216.841 138.122H216.879C218.411 138.096 219.918 137.965 221.411 137.808C222.763 137.664 223.741 136.433 223.587 135.059C223.43 133.801 222.374 132.858 221.138 132.858Z" fill="#35BB8A" fill-opacity="0.98"/>
<path d="M269.759 83.9466C268.536 83.9466 267.493 84.8892 267.326 86.1461C267.068 88.3849 266.656 90.6363 266.103 92.8626C265.769 94.1722 266.567 95.5204 267.88 95.8606L268.484 95.9519C269.578 95.9519 270.57 95.2053 270.853 94.0666C270.981 93.5689 271.098 93.0586 271.201 92.5609V92.5475L271.214 92.5341L271.227 92.4813V92.4286H271.24V92.3892H271.253V92.2978H271.267L271.28 92.2844V92.2191H271.293V92.1403L271.306 92.1143V92.0482L271.332 92.0348V92.0088L271.345 91.956V91.93L271.358 91.8387C271.719 90.1495 271.989 88.4611 272.207 86.7326C272.349 85.371 271.409 84.1276 270.07 83.9701L269.759 83.9466Z" fill="#35BB8A" fill-opacity="0.98"/>
<path d="M233.29 29.3655C235.388 30.1641 237.461 31.0807 239.43 32.1415C239.791 32.3375 240.177 32.4423 240.563 32.4423C241.439 32.4423 242.288 31.932 242.726 31.0807C243.357 29.8633 242.893 28.371 241.696 27.7426C240.215 26.944 238.684 26.2109 237.139 25.5691L237.062 25.5297H237.048L237.023 25.5163L236.971 25.5029L236.958 25.4895L236.906 25.4761L236.867 25.4501L236.712 25.3981V25.3847L236.687 25.3713L236.622 25.3453H236.609L236.545 25.3194V25.2934H236.519L236.468 25.28H236.441L236.351 25.2406L236.274 25.2146V25.1887C235.849 25.0311 235.411 24.861 234.986 24.7044C234.703 24.5996 234.419 24.5602 234.149 24.5602C233.145 24.5602 232.206 25.1753 231.845 26.1841C231.385 27.4669 232.029 28.9072 233.29 29.3655Z" fill="#35BB8A" fill-opacity="0.98"/>
<path d="M257.195 47.4983C257.684 48.1527 258.405 48.4938 259.152 48.4938C259.667 48.4938 260.182 48.3362 260.619 47.9961C261.701 47.1582 261.919 45.6131 261.108 44.5138C260.285 43.4011 259.422 42.3143 258.534 41.267L258.43 41.1614L258.417 41.1354L258.378 41.096H258.365L258.352 41.07L258.341 41.0566L258.315 41.0307L258.302 41.0047L258.289 40.9913L258.276 40.9653H258.25V40.9385L258.237 40.9251V40.8991H258.212L258.198 40.8857H258.185V40.8597H258.172V40.8472L258.147 40.8338V40.8204L258.095 40.7676H258.082L258.068 40.7416L258.055 40.7282L258.016 40.7022V40.6888L258.003 40.6754V40.662L257.978 40.6092H257.965L257.913 40.5564L257.887 40.543V40.5296L257.862 40.4902H257.848L257.835 40.4768V40.4634L257.796 40.424H257.771V40.3981L257.667 40.2674H257.654L257.538 40.1492C257.151 39.7169 256.739 39.2853 256.341 38.8396C255.851 38.3293 255.221 38.0805 254.577 38.0805C253.959 38.0805 253.354 38.3159 252.877 38.8002C251.912 39.7428 251.886 41.3273 252.825 42.3093C254.389 43.9373 255.856 45.691 257.195 47.4983Z" fill="#35BB8A" fill-opacity="0.98"/>
</svg>
